<?xml version="1.0" ?><svg data-name="Layer 1" id="Layer_1" viewBox="0 0 64 64" xmlns="http://www.w3.org/2000/svg"><path d="M56.4336.0986a1.0015,1.0015,0,0,0-1.0586.12L51,3.72,46.625.2188a1.0038,1.0038,0,0,0-1.25,0L41,3.72,36.625.2188a1.0038,1.0038,0,0,0-1.25,0L31,3.72,26.625.2188a1.0038,1.0038,0,0,0-1.25,0L21,3.72,16.625.2188A.9281.9281,0,0,0,16.51.16.96.96,0,0,0,16.3275.066a.9623.9623,0,0,0-.1986-.04A.946.946,0,0,0,16,0c-.02,0-.0362.01-.0557.0112a.9934.9934,0,0,0-.1936.039.99.99,0,0,0-.1831.0573.9859.9859,0,0,0-.1443.0972A.9816.9816,0,0,0,15.2609.34c-.0126.014-.03.02-.0421.0352a.9277.9277,0,0,0-.06.116.9636.9636,0,0,0-.0929.1807.959.959,0,0,0-.0409.2031A.941.941,0,0,0,15,1V59a3,3,0,0,1-6,0V47a1,1,0,0,0-2,0V59a5.0059,5.0059,0,0,0,5,5H52a5.0059,5.0059,0,0,0,5-5V1A1.0012,1.0012,0,0,0,56.4336.0986ZM55,59a3.0033,3.0033,0,0,1-3,3H15.9744A4.9514,4.9514,0,0,0,17,59V3.0812l3.375,2.7a1.004,1.004,0,0,0,1.25,0L26,2.28l4.375,3.501a1.004,1.004,0,0,0,1.25,0L36,2.28l4.375,3.501a1.004,1.004,0,0,0,1.25,0L46,2.28l4.375,3.501a1.004,1.004,0,0,0,1.25,0L55,3.0811ZM30,31a1,1,0,0,0,0,2h5v2a1,1,0,0,0,2,0V33h2a4,4,0,0,0,0-8H37V21h5a1,1,0,0,0,0-2H37V17a1,1,0,0,0-2,0v2H33a4,4,0,0,0,0,8h2v4Zm3-6a2,2,0,0,1,0-4h2v4Zm4,2h2a2,2,0,0,1,0,4H37ZM51,44a1,1,0,0,1-1,1H22a1,1,0,0,1,0-2H50A1,1,0,0,1,51,44Zm0,6a1,1,0,0,1-1,1H22a1,1,0,0,1,0-2H50A1,1,0,0,1,51,50Zm0,6a1,1,0,0,1-1,1H22a1,1,0,0,1,0-2H50A1,1,0,0,1,51,56Z"/></svg>